<?xml version="1.0" encoding="utf-8"?>
<!-- Generator: Adobe Illustrator 19.1.0, SVG Export Plug-In . SVG Version: 6.00 Build 0)  -->
<svg version="1.1" id="아이콘" xmlns="http://www.w3.org/2000/svg" xmlns:xlink="http://www.w3.org/1999/xlink" x="0px" y="0px"
	 viewBox="-134 360.5 342.1 72.5" style="enable-background:new -134 360.5 342.1 72.5;" xml:space="preserve">
<style type="text/css">
	.st0{fill:#A5A5A5;}
	.st1{enable-background:new    ;}
	.st2{fill:#ACABA7;}
</style>
<g>
	<path class="st0" d="M-89.6,406.4c-3.2,0-6.3-1.2-8.8-3.6c-2.4-2.3-3.7-5.5-3.9-8.9c0-3.4,1.2-6.6,3.6-9c4.9-5,12.9-5.2,17.9-0.3
		c5,4.9,5.2,12.9,0.3,17.9l0,0C-83,405.1-86.4,406.4-89.6,406.4z M-89.6,384.2c-2.4,0-4.9,0.9-6.8,2.8c-1.8,1.8-2.7,4.3-2.7,6.7
		c0,2.6,1,4.9,2.8,6.6c3.7,3.6,9.7,3.5,13.4-0.3l0,0c3.6-3.7,3.5-9.7-0.3-13.4C-84.9,385.1-87.3,384.2-89.6,384.2z"/>
	<path class="st0" d="M-73.6,410.8c-0.4,0-0.8-0.1-1.2-0.5l-8.1-7.9c-0.6-0.6-0.6-1.7,0-2.3c0.6-0.6,1.7-0.6,2.3,0l8.1,7.9
		c0.6,0.6,0.6,1.7,0,2.3C-72.7,410.7-73.2,410.8-73.6,410.8z"/>
</g>
<g class="st1">
	<path class="st2" d="M-28.3,387.8c-0.2,2.4-1.1,4.6-2.6,6.4c-1.5,1.8-3.4,3.2-5.8,4.1l-1.6-1.7c1.9-0.7,3.6-1.8,4.7-3
		c1.1-1.2,1.9-2.4,2.3-3.6H-37v-2.2H-28.3z M-22.5,406.9H-33v-7.5h10.5V406.9z M-24.9,404.7v-3.2h-5.7v3.2H-24.9z M-22.1,398.6h-2.3
		v-4.4h-4.4v-2.2h4.4v-5.6h2.3V398.6z"/>
	<path class="st2" d="M-9,396l-1.6,1.6l-3.6-3.6c-0.5,0.9-1.1,1.6-1.7,2.2c-0.6,0.6-1.5,1.2-2.3,1.6l-1.6-1.7c0.6-0.2,1.1-0.6,1.7-1
		c0.6-0.5,1.1-1,1.6-1.6c0.5-0.6,0.9-1.3,1.1-2.1c0.2-0.7,0.4-1.6,0.4-2.6v-1.6h2.4v1.6c0,0.5,0,1-0.1,1.3s-0.2,1-0.4,1.3L-9,396z
		 M-2.4,407.3h-2.3v-5.5h-8.4v-2.2h10.7V407.3z M-1.6,398.9h-2.3V393h-2.2v5.3h-2.3v-11.7h2.3v4h2.2v-4.5h2.3V398.9z"/>
</g>
</svg>
